# xmcd
#
# Track frame offsets:
#	150
#	77285
#	181722
#	248267
#
# Disc length: 4713 seconds
#
# Revision: 0
# Processed by: cddbd v1.5.2PL0 Copyright (c) Steve Scherf et al.
# Submitted via: audiograbber 1.83.01
#
DISCID=17126704
DTITLE=Klaus Schulze - Vanity Of Sounds [ex: Contemporary Works [CD 01)]
DYEAR=2000
DGENRE=Electronic
TTITLE0=Vanity Of Sounds
TTITLE1=Sacred Romance
TTITLE2=The Wings Of String
TTITLE3=From Words To Silence
EXTD=
EXTT0=
EXTT1=
EXTT2=
EXTT3=
PLAYORDER=
